<?xml version="1.0" standalone="no"?><!DOCTYPE svg PUBLIC "-//W3C//DTD SVG 1.1//EN" "http://www.w3.org/Graphics/SVG/1.1/DTD/svg11.dtd"><svg t="1748249143402" class="icon" viewBox="0 0 1152 1024" version="1.1" xmlns="http://www.w3.org/2000/svg" p-id="5227" xmlns:xlink="http://www.w3.org/1999/xlink" width="72" height="64"><path d="M480 42.666667C504.533333 18.133333 533.333333 0 576 0v85.333333c-21.333333 0-53.333333 32-64 42.666667L85.333333 554.666667h149.397334c23.488 0 42.602667 19.050667 42.602666 42.56v298.88A42.666667 42.666667 0 0 0 320.128 938.666667H576v85.333333H277.226667A85.269333 85.269333 0 0 1 192 938.773333V640H42.666667c-21.333333 0-42.666667-21.333333-42.666667-42.666667v-42.666666c0-21.333333 0.042667-31.658667 10.666667-42.666667l469.333333-469.333333z m192 0l469.333333 469.333333c10.624 11.008 10.666667 21.333333 10.666667 42.666667v42.666666c0 21.333333-21.333333 42.666667-42.666667 42.666667h-149.333333v298.773333A85.269333 85.269333 0 0 1 874.773333 1024H576v-85.333333h255.872A42.666667 42.666667 0 0 0 874.666667 896.106667v-298.88c0-23.509333 19.114667-42.56 42.602666-42.56H1066.666667L640 128c-10.666667-10.666667-42.666667-42.666667-64-42.666667V0c42.666667 0 71.466667 18.133333 96 42.666667zM554.666667 896c-23.722667 0-42.666667-19.157333-42.666667-42.794667v-213.077333c0-4.117333 0.576-8.106667 1.664-11.861333A170.730667 170.730667 0 0 1 576 298.666667a170.666667 170.666667 0 0 1 21.312 340.010666L597.333333 682.666667h42.709334c23.701333 0 42.624 19.093333 42.624 42.666666 0 23.722667-19.093333 42.666667-42.624 42.666667H597.333333v42.666667h42.538667c23.893333 0 42.794667 19.093333 42.794667 42.666666 0 23.722667-19.157333 42.666667-42.794667 42.666667H554.666667z m21.333333-362.666667a64 64 0 1 0 0-128 64 64 0 0 0 0 128z" fill="#1296db" p-id="5228"></path></svg>